<svg width="222" height="176" viewBox="0 0 222 176" fill="none" xmlns="http://www.w3.org/2000/svg" xmlns:xlink="http://www.w3.org/1999/xlink">
<g filter="url(#filter108_397)">
<path d="M220.862,87.695C220.862,136.128 171.42,175.391 110.431,175.391C49.442,175.391 0,136.128 0,87.695C0,39.263 49.442,0 110.431,0C171.42,0 220.862,39.263 220.862,87.695Z" fill="#25D366"/>
</g>
<path d="M112.715,53.299C87.636,53.299 67.221,69.497 67.212,89.413C67.207,95.779 69.307,101.994 73.288,107.47L67.114,125.64L90.946,121.168C97.592,124.047 105.073,125.559 112.688,125.562L112.706,125.562C137.78,125.562 158.187,109.36 158.201,89.448C158.21,79.794 153.483,70.718 144.892,63.889C136.302,57.063 124.886,53.302 112.715,53.299ZM112.706,60.533C122.435,60.537 131.578,63.549 138.452,69.003C145.325,74.465 149.1,81.722 149.091,89.441C149.082,105.371 132.766,118.328 112.697,118.328C106.626,118.325 100.612,117.114 95.314,114.817L92.245,113.489L88.856,114.125L79.888,115.806L82.077,109.349L83.064,106.453L81.178,103.853C77.999,99.483 76.317,94.488 76.321,89.413C76.33,73.491 92.651,60.533 112.706,60.533ZM96.613,72.741C95.852,72.741 94.623,72.967 93.58,73.871C92.537,74.771 89.594,76.953 89.594,81.395C89.594,85.836 93.669,90.13 94.238,90.734C94.803,91.334 102.103,100.737 113.658,104.354C123.26,107.36 125.21,106.767 127.296,106.615C129.382,106.467 134.026,104.436 134.973,102.327C135.921,100.218 135.923,98.404 135.64,98.032C135.358,97.656 134.6,97.431 133.461,96.979C132.327,96.527 126.738,94.347 125.695,94.047C124.652,93.747 123.889,93.595 123.132,94.499C122.376,95.404 120.203,97.431 119.538,98.032C118.873,98.636 118.213,98.717 117.074,98.265C115.936,97.809 112.274,96.853 107.929,93.779C104.549,91.388 102.269,88.438 101.604,87.534C100.943,86.633 101.542,86.138 102.111,85.69C102.621,85.285 103.241,84.636 103.81,84.107C104.375,83.579 104.571,83.203 104.949,82.603C105.327,82.002 105.133,81.472 104.851,81.02C104.569,80.568 102.357,76.11 101.346,74.323C100.494,72.822 99.595,72.787 98.784,72.762C98.123,72.74 97.369,72.741 96.613,72.741Z" fill="#FFFFFF"/>
<defs>
<filter id="filter108_397" x="-4" y="-4" width="118.43103" height="95.695313" filterUnits="userSpaceOnUse" color-interpolation-filters="sRGB">
<feFlood flood-opacity="0" result="BackgroundImageFix"/>
<feColorMatrix in="SourceAlpha" type="matrix" values="0 0 0 0 0 0 0 0 0 0 0 0 0 0 0 0 0 0 127 0" result="hardAlpha"/>
<feMorphology radius="0" operator="dilate" in="SourceAlpha" result="0dropshadow"/>
<feOffset dx="0" dy="4"/>
<feGaussianBlur stdDeviation="2"/>
<feComposite in2="hardAlpha" operator="out"/>
<feColorMatrix type="matrix" values="0 0 0 0 0 0 0 0 0 0 0 0 0 0 0 0 0 0 0.25 0"/>
<feBlend mode="normal" in2="BackgroundImageFix" result="0dropshadow"/>
<feBlend mode="normal" in="SourceGraphic" in2="0dropshadow" result="shape"/>
</filter>
</defs>
</svg>
