<svg width="120" height="132" viewBox="0 0 120 132" fill="none" xmlns="http://www.w3.org/2000/svg" xmlns:xlink="http://www.w3.org/1999/xlink">
<path d="M20,24.912L100,24.912L100,18.912L20,18.912L20,24.912ZM100,24.912C103.627,24.912 107,28.21 107,32.724L113,32.724C113,25.346 107.373,18.912 100,18.912L100,24.912ZM107,32.724L107,97.597L113,97.597L113,32.724L107,32.724ZM107,97.597C107,102.111 103.627,105.409 100,105.409L100,111.409C107.373,111.409 113,104.975 113,97.597L107,97.597ZM100,105.409L20,105.409L20,111.409L100,111.409L100,105.409ZM20,105.409C16.373,105.409 13,102.111 13,97.597L7,97.597C7,104.975 12.627,111.409 20,111.409L20,105.409ZM13,97.597L13,32.724L7,32.724L7,97.597L13,97.597ZM13,32.724C13,28.21 16.373,24.912 20,24.912L20,18.912C12.627,18.912 7,25.346 7,32.724L13,32.724Z" fill="#393939"/>
<path d="M111.81,35.115C113.132,34.115 113.392,32.233 112.392,30.912C111.392,29.591 109.511,29.331 108.19,30.331L111.81,35.115ZM60,70.565L58.19,72.957C59.26,73.767 60.74,73.767 61.81,72.957L60,70.565ZM11.81,30.331C10.489,29.331 8.608,29.591 7.608,30.912C6.608,32.233 6.868,34.115 8.19,35.115L11.81,30.331ZM108.19,30.331L58.19,68.173L61.81,72.957L111.81,35.115L108.19,30.331ZM61.81,68.173L11.81,30.331L8.19,35.115L58.19,72.957L61.81,68.173Z" fill="#393939"/>
</svg>
