<svg width="120" height="130" viewBox="0 0 120 130" fill="none" xmlns="http://www.w3.org/2000/svg" xmlns:xlink="http://www.w3.org/1999/xlink">
<path d="M35,13.465L85,13.465L85,7.465L35,7.465L35,13.465ZM85,13.465C96.934,13.465 107,23.999 107,37.495L113,37.495C113,21.135 100.68,7.465 85,7.465L85,13.465ZM107,37.495L107,91.555L113,91.555L113,37.495L107,37.495ZM107,91.555C107,105.052 96.934,115.585 85,115.585L85,121.585C100.68,121.585 113,107.916 113,91.555L107,91.555ZM85,115.585L35,115.585L35,121.585L85,121.585L85,115.585ZM35,115.585C23.066,115.585 13,105.052 13,91.555L7,91.555C7,107.916 19.32,121.585 35,121.585L35,115.585ZM13,91.555L13,37.495L7,37.495L7,91.555L13,91.555ZM13,37.495C13,23.999 23.066,13.465 35,13.465L35,7.465C19.32,7.465 7,21.135 7,37.495L13,37.495Z" fill="#393939"/>
<path d="M80,61.118L77.028,61.526L80,61.118ZM63.15,42.9L62.675,45.862L63.15,42.9ZM77.028,61.526C77.566,65.451 76.944,69.452 75.264,72.952L80.674,75.548C82.869,70.972 83.668,65.784 82.972,60.711L77.028,61.526ZM75.264,72.952C73.586,76.449 70.951,79.241 67.774,80.971L70.642,86.241C74.98,83.88 78.477,80.125 80.674,75.548L75.264,72.952ZM67.774,80.971C64.602,82.697 61.029,83.289 57.553,82.684L56.525,88.595C61.356,89.436 66.3,88.604 70.642,86.241L67.774,80.971ZM57.553,82.684C54.075,82.079 50.823,80.297 48.277,77.544L43.872,81.618C47.274,85.297 51.696,87.755 56.525,88.595L57.553,82.684ZM48.277,77.544C45.727,74.787 44.021,71.201 43.438,67.284L37.503,68.167C38.257,73.231 40.472,77.942 43.872,81.618L48.277,77.544ZM43.438,67.284C42.855,63.366 43.431,59.357 45.071,55.834L39.632,53.302C37.489,57.905 36.749,63.104 37.503,68.167L43.438,67.284ZM45.071,55.834C46.71,52.313 49.314,49.485 52.473,47.712L49.537,42.48C45.228,44.897 41.775,48.697 39.632,53.302L45.071,55.834ZM52.473,47.712C55.627,45.943 59.193,45.304 62.675,45.862L63.625,39.938C58.784,39.162 53.851,40.06 49.537,42.48L52.473,47.712ZM62.675,45.862C66.229,46.432 69.559,48.228 72.156,51.037L76.561,46.963C73.09,43.21 68.56,40.729 63.625,39.938L62.675,45.862ZM72.156,51.037C74.757,53.849 76.479,57.522 77.028,61.526L82.972,60.711C82.263,55.536 80.029,50.712 76.561,46.963L72.156,51.037Z" fill="#393939"/>
<line x1="87.5" y1="31.791" x2="87.548" y2="31.791" stroke="#393939" stroke-width="3" stroke-miterlimit="3.999327" stroke-linecap="round" stroke-linejoin="round"/>
</svg>
