<svg width="50" height="54" viewBox="0 0 50 54" fill="none" xmlns="http://www.w3.org/2000/svg" xmlns:xlink="http://www.w3.org/1999/xlink">
<path d="M43.75,22.407L45.75,22.407L43.75,22.407ZM25,50.518L23.862,52.163C24.547,52.637 25.453,52.637 26.138,52.163L25,50.518ZM6.25,22.407L4.25,22.407L6.25,22.407ZM25,2.945L25,4.945L25,2.945ZM41.75,22.407C41.75,29.199 37.5,35.748 32.898,40.791C30.633,43.272 28.362,45.303 26.656,46.713C25.804,47.417 25.096,47.964 24.606,48.331C24.361,48.515 24.17,48.654 24.043,48.745C23.98,48.791 23.932,48.825 23.901,48.846C23.886,48.857 23.875,48.865 23.868,48.869C23.865,48.872 23.863,48.873 23.862,48.874C23.861,48.874 23.861,48.874 23.861,48.874C23.861,48.874 23.861,48.874 23.861,48.874C23.862,48.874 23.862,48.874 25,50.518C26.138,52.163 26.139,52.163 26.139,52.162C26.139,52.162 26.14,52.162 26.141,52.161C26.142,52.161 26.143,52.16 26.145,52.158C26.148,52.156 26.153,52.153 26.159,52.149C26.17,52.141 26.186,52.13 26.206,52.115C26.247,52.087 26.304,52.046 26.378,51.993C26.526,51.887 26.738,51.732 27.005,51.532C27.54,51.131 28.298,50.545 29.204,49.796C31.013,48.301 33.429,46.142 35.852,43.487C40.625,38.259 45.75,30.752 45.75,22.407L41.75,22.407ZM25,50.518C26.138,48.874 26.138,48.874 26.139,48.874C26.139,48.874 26.139,48.874 26.139,48.874C26.139,48.874 26.139,48.874 26.138,48.874C26.137,48.873 26.135,48.872 26.132,48.869C26.125,48.865 26.114,48.857 26.099,48.846C26.068,48.825 26.02,48.791 25.957,48.745C25.83,48.654 25.639,48.515 25.394,48.331C24.904,47.964 24.196,47.417 23.344,46.713C21.638,45.303 19.367,43.272 17.102,40.791C12.5,35.748 8.25,29.199 8.25,22.407L4.25,22.407C4.25,30.752 9.375,38.259 14.148,43.487C16.571,46.142 18.987,48.301 20.796,49.796C21.702,50.545 22.46,51.131 22.995,51.532C23.262,51.732 23.474,51.887 23.622,51.993C23.696,52.046 23.753,52.087 23.794,52.115C23.814,52.13 23.83,52.141 23.841,52.149C23.847,52.153 23.852,52.156 23.855,52.158C23.857,52.16 23.858,52.161 23.859,52.161C23.86,52.162 23.861,52.162 23.861,52.162C23.861,52.163 23.862,52.163 25,50.518ZM8.25,22.407C8.25,17.752 10.032,13.303 13.182,10.033L10.301,7.258C6.419,11.288 4.25,16.739 4.25,22.407L8.25,22.407ZM13.182,10.033C16.33,6.766 20.582,4.945 25,4.945L25,0.945C19.472,0.945 14.187,3.225 10.301,7.258L13.182,10.033ZM25,4.945C29.418,4.945 33.67,6.766 36.818,10.033L39.699,7.258C35.813,3.225 30.528,0.945 25,0.945L25,4.945ZM36.818,10.033C39.968,13.303 41.75,17.752 41.75,22.407L45.75,22.407C45.75,16.739 43.581,11.288 39.699,7.258L36.818,10.033Z" fill="#393939"/>
<path d="M29.25,22.407C29.25,24.956 27.278,26.894 25,26.894L25,30.894C29.626,30.894 33.25,27.024 33.25,22.407L29.25,22.407ZM25,26.894C22.722,26.894 20.75,24.956 20.75,22.407L16.75,22.407C16.75,27.024 20.374,30.894 25,30.894L25,26.894ZM20.75,22.407C20.75,19.858 22.722,17.92 25,17.92L25,13.92C20.374,13.92 16.75,17.791 16.75,22.407L20.75,22.407ZM25,17.92C27.278,17.92 29.25,19.858 29.25,22.407L33.25,22.407C33.25,17.791 29.626,13.92 25,13.92L25,17.92Z" fill="#393939"/>
</svg>
