<svg width="50" height="54" viewBox="0 0 50 54" fill="none" xmlns="http://www.w3.org/2000/svg" xmlns:xlink="http://www.w3.org/1999/xlink">
<path d="M43.75,21.841L45.75,21.841L43.75,21.841ZM25,49.952L23.862,51.597C24.547,52.071 25.453,52.071 26.138,51.597L25,49.952ZM6.25,21.841L4.25,21.841L6.25,21.841ZM25,2.379L25,4.379L25,2.379ZM41.75,21.841C41.75,28.633 37.5,35.182 32.898,40.224C30.633,42.706 28.362,44.736 26.656,46.147C25.804,46.851 25.096,47.397 24.606,47.765C24.361,47.948 24.17,48.087 24.043,48.179C23.98,48.224 23.932,48.258 23.901,48.28C23.886,48.291 23.875,48.298 23.868,48.303C23.865,48.305 23.863,48.307 23.862,48.308C23.861,48.308 23.861,48.308 23.861,48.308C23.861,48.308 23.861,48.308 23.861,48.308C23.862,48.308 23.862,48.307 25,49.952C26.138,51.597 26.139,51.596 26.139,51.596C26.139,51.596 26.14,51.595 26.141,51.595C26.142,51.594 26.143,51.593 26.145,51.592C26.148,51.59 26.153,51.586 26.159,51.582C26.17,51.574 26.186,51.563 26.206,51.549C26.247,51.521 26.304,51.48 26.378,51.427C26.526,51.321 26.738,51.166 27.005,50.965C27.54,50.564 28.298,49.979 29.204,49.23C31.013,47.735 33.429,45.575 35.852,42.921C40.625,37.692 45.75,30.185 45.75,21.841L41.75,21.841ZM25,49.952C26.138,48.307 26.138,48.308 26.139,48.308C26.139,48.308 26.139,48.308 26.139,48.308C26.139,48.308 26.139,48.308 26.138,48.308C26.137,48.307 26.135,48.305 26.132,48.303C26.125,48.298 26.114,48.291 26.099,48.28C26.068,48.258 26.02,48.224 25.957,48.179C25.83,48.087 25.639,47.948 25.394,47.765C24.904,47.397 24.196,46.851 23.344,46.147C21.638,44.736 19.367,42.706 17.102,40.224C12.5,35.182 8.25,28.633 8.25,21.841L4.25,21.841C4.25,30.185 9.375,37.692 14.148,42.921C16.571,45.575 18.987,47.735 20.796,49.23C21.702,49.979 22.46,50.564 22.995,50.965C23.262,51.166 23.474,51.321 23.622,51.427C23.696,51.48 23.753,51.521 23.794,51.549C23.814,51.563 23.83,51.574 23.841,51.582C23.847,51.586 23.852,51.59 23.855,51.592C23.857,51.593 23.858,51.594 23.859,51.595C23.86,51.595 23.861,51.596 23.861,51.596C23.861,51.596 23.862,51.597 25,49.952ZM8.25,21.841C8.25,17.186 10.032,12.736 13.182,9.467L10.301,6.691C6.419,10.722 4.25,16.172 4.25,21.841L8.25,21.841ZM13.182,9.467C16.33,6.2 20.582,4.379 25,4.379L25,0.379C19.472,0.379 14.187,2.659 10.301,6.691L13.182,9.467ZM25,4.379C29.418,4.379 33.67,6.2 36.818,9.467L39.699,6.691C35.813,2.659 30.528,0.379 25,0.379L25,4.379ZM36.818,9.467C39.968,12.736 41.75,17.186 41.75,21.841L45.75,21.841C45.75,16.172 43.581,10.722 39.699,6.691L36.818,9.467Z" fill="#393939"/>
<path d="M29.25,21.841C29.25,24.39 27.278,26.328 25,26.328L25,30.328C29.626,30.328 33.25,26.457 33.25,21.841L29.25,21.841ZM25,26.328C22.722,26.328 20.75,24.39 20.75,21.841L16.75,21.841C16.75,26.457 20.374,30.328 25,30.328L25,26.328ZM20.75,21.841C20.75,19.292 22.722,17.354 25,17.354L25,13.354C20.374,13.354 16.75,17.224 16.75,21.841L20.75,21.841ZM25,17.354C27.278,17.354 29.25,19.292 29.25,21.841L33.25,21.841C33.25,17.224 29.626,13.354 25,13.354L25,17.354Z" fill="#393939"/>
</svg>
