<svg width="50" height="52" viewBox="0 0 50 52" fill="none" xmlns="http://www.w3.org/2000/svg" xmlns:xlink="http://www.w3.org/1999/xlink">
<path d="M43.75,21.276L45.75,21.276L43.75,21.276ZM25,49.387L23.862,51.032C24.547,51.506 25.453,51.506 26.138,51.032L25,49.387ZM6.25,21.276L4.25,21.276L6.25,21.276ZM25,1.814L25,3.814L25,1.814ZM41.75,21.276C41.75,28.068 37.5,34.617 32.898,39.66C30.633,42.141 28.362,44.172 26.656,45.582C25.804,46.286 25.096,46.833 24.606,47.2C24.361,47.384 24.17,47.523 24.043,47.614C23.98,47.66 23.932,47.694 23.901,47.715C23.886,47.726 23.875,47.734 23.868,47.738C23.865,47.741 23.863,47.742 23.862,47.743C23.861,47.743 23.861,47.743 23.861,47.743C23.861,47.743 23.861,47.743 23.861,47.743C23.862,47.743 23.862,47.743 25,49.387C26.138,51.032 26.139,51.032 26.139,51.031C26.139,51.031 26.14,51.031 26.141,51.03C26.142,51.03 26.143,51.029 26.145,51.027C26.148,51.025 26.153,51.022 26.159,51.018C26.17,51.01 26.186,50.999 26.206,50.984C26.247,50.956 26.304,50.915 26.378,50.862C26.526,50.756 26.738,50.601 27.005,50.401C27.54,50 28.298,49.414 29.204,48.665C31.013,47.17 33.429,45.011 35.852,42.356C40.625,37.128 45.75,29.621 45.75,21.276L41.75,21.276ZM25,49.387C26.138,47.743 26.138,47.743 26.139,47.743C26.139,47.743 26.139,47.743 26.139,47.743C26.139,47.743 26.139,47.743 26.138,47.743C26.137,47.742 26.135,47.741 26.132,47.738C26.125,47.734 26.114,47.726 26.099,47.715C26.068,47.694 26.02,47.66 25.957,47.614C25.83,47.523 25.639,47.384 25.394,47.2C24.904,46.833 24.196,46.286 23.344,45.582C21.638,44.172 19.367,42.141 17.102,39.66C12.5,34.617 8.25,28.068 8.25,21.276L4.25,21.276C4.25,29.621 9.375,37.128 14.148,42.356C16.571,45.011 18.987,47.17 20.796,48.665C21.702,49.414 22.46,50 22.995,50.401C23.262,50.601 23.474,50.756 23.622,50.862C23.696,50.915 23.753,50.956 23.794,50.984C23.814,50.999 23.83,51.01 23.841,51.018C23.847,51.022 23.852,51.025 23.855,51.027C23.857,51.029 23.858,51.03 23.859,51.03C23.86,51.031 23.861,51.031 23.861,51.031C23.861,51.032 23.862,51.032 25,49.387ZM8.25,21.276C8.25,16.621 10.032,12.172 13.182,8.902L10.301,6.127C6.419,10.157 4.25,15.608 4.25,21.276L8.25,21.276ZM13.182,8.902C16.33,5.635 20.582,3.814 25,3.814L25,-0.186C19.472,-0.186 14.187,2.094 10.301,6.127L13.182,8.902ZM25,3.814C29.418,3.814 33.67,5.635 36.818,8.902L39.699,6.127C35.813,2.094 30.528,-0.186 25,-0.186L25,3.814ZM36.818,8.902C39.968,12.172 41.75,16.621 41.75,21.276L45.75,21.276C45.75,15.608 43.581,10.157 39.699,6.127L36.818,8.902Z" fill="#393939"/>
<path d="M29.25,21.276C29.25,23.825 27.278,25.764 25,25.764L25,29.764C29.626,29.764 33.25,25.893 33.25,21.276L29.25,21.276ZM25,25.764C22.722,25.764 20.75,23.825 20.75,21.276L16.75,21.276C16.75,25.893 20.374,29.764 25,29.764L25,25.764ZM20.75,21.276C20.75,18.727 22.722,16.789 25,16.789L25,12.789C20.374,12.789 16.75,16.66 16.75,21.276L20.75,21.276ZM25,16.789C27.278,16.789 29.25,18.727 29.25,21.276L33.25,21.276C33.25,16.66 29.626,12.789 25,12.789L25,16.789Z" fill="#393939"/>
</svg>
