<svg width="60" height="60" viewBox="0 0 60 60" fill="none" xmlns="http://www.w3.org/2000/svg" xmlns:xlink="http://www.w3.org/1999/xlink">
<path d="M30.035,0C13.517,0 0.07,13.435 0.064,29.953C0.061,35.233 1.444,40.388 4.066,44.93L0,60L15.697,56.291C20.074,58.679 25.002,59.933 30.018,59.936L30.029,59.936C46.544,59.936 59.985,46.497 59.994,29.982C60,21.975 56.887,14.447 51.229,8.783C45.571,3.122 38.051,0.003 30.035,0ZM30.029,6C36.437,6.003 42.459,8.501 46.986,13.025C51.513,17.555 54,23.575 53.994,29.977C53.988,43.189 43.241,53.936 30.023,53.936C26.024,53.933 22.063,52.928 18.574,51.023L16.553,49.922L14.32,50.449L8.414,51.844L9.855,46.488L10.506,44.086L9.264,41.93C7.17,38.306 6.061,34.162 6.064,29.953C6.07,16.747 16.82,6 30.029,6ZM19.43,16.125C18.929,16.125 18.119,16.313 17.432,17.063C16.745,17.809 14.807,19.619 14.807,23.303C14.807,26.987 17.49,30.548 17.865,31.049C18.237,31.547 23.045,39.346 30.656,42.346C36.98,44.839 38.265,44.347 39.639,44.221C41.013,44.098 44.071,42.413 44.695,40.664C45.319,38.915 45.321,37.411 45.135,37.102C44.949,36.79 44.449,36.604 43.699,36.229C42.952,35.854 39.271,34.046 38.584,33.797C37.897,33.548 37.394,33.422 36.896,34.172C36.398,34.922 34.967,36.604 34.529,37.102C34.091,37.603 33.656,37.67 32.906,37.295C32.156,36.917 29.745,36.124 26.883,33.574C24.657,31.591 23.155,29.145 22.717,28.395C22.282,27.648 22.676,27.237 23.051,26.865C23.387,26.529 23.795,25.991 24.17,25.553C24.542,25.115 24.671,24.803 24.92,24.305C25.169,23.807 25.041,23.367 24.855,22.992C24.669,22.617 23.213,18.919 22.547,17.438C21.986,16.193 21.393,16.164 20.859,16.143C20.424,16.125 19.928,16.125 19.43,16.125Z" fill="#FFFFFF"/>
</svg>
