<svg width="62" height="116" viewBox="0 0 62 116" fill="none" xmlns="http://www.w3.org/2000/svg" xmlns:xlink="http://www.w3.org/1999/xlink">
<path d="M58,3.619L61,3.619C61,1.962 59.657,0.619 58,0.619L58,3.619ZM43,3.619L43,0.619L43,3.619ZM18,30.649L15,30.649L18,30.649ZM18,46.867L18,49.867C19.657,49.867 21,48.524 21,46.867L18,46.867ZM3,46.867L3,43.867C1.343,43.867 0,45.211 0,46.867L3,46.867ZM3,68.492L0,68.492C0,70.148 1.343,71.492 3,71.492L3,68.492ZM18,68.492L21,68.492C21,66.835 19.657,65.492 18,65.492L18,68.492ZM18,111.74L15,111.74C15,113.397 16.343,114.74 18,114.74L18,111.74ZM38,111.74L38,114.74C39.657,114.74 41,113.397 41,111.74L38,111.74ZM38,68.492L38,65.492C36.343,65.492 35,66.835 35,68.492L38,68.492ZM53,68.492L53,71.492C54.396,71.492 55.608,70.528 55.923,69.167L53,68.492ZM58,46.867L60.923,47.543C61.129,46.652 60.917,45.716 60.348,45C59.779,44.285 58.914,43.867 58,43.867L58,46.867ZM38,46.867L35,46.867C35,48.524 36.343,49.867 38,49.867L38,46.867ZM43,25.243L43,28.243L43,25.243ZM58,25.243L58,28.243C59.657,28.243 61,26.9 61,25.243L58,25.243ZM58,0.619L43,0.619L43,6.619L58,6.619L58,0.619ZM43,0.619C35.495,0.619 28.35,3.845 23.12,9.499L27.525,13.573C31.672,9.089 37.244,6.619 43,6.619L43,0.619ZM23.12,9.499C17.898,15.146 15,22.757 15,30.649L21,30.649C21,24.204 23.37,18.065 27.525,13.573L23.12,9.499ZM15,30.649L15,46.867L21,46.867L21,30.649L15,30.649ZM18,43.867L3,43.867L3,49.867L18,49.867L18,43.867ZM0,46.867L0,68.492L6,68.492L6,46.867L0,46.867ZM3,71.492L18,71.492L18,65.492L3,65.492L3,71.492ZM15,68.492L15,111.74L21,111.74L21,68.492L15,68.492ZM18,114.74L38,114.74L38,108.74L18,108.74L18,114.74ZM41,111.74L41,68.492L35,68.492L35,111.74L41,111.74ZM38,71.492L53,71.492L53,65.492L38,65.492L38,71.492ZM55.923,69.167L60.923,47.543L55.077,46.192L50.077,67.816L55.923,69.167ZM58,43.867L38,43.867L38,49.867L58,49.867L58,43.867ZM41,46.867L41,30.649L35,30.649L35,46.867L41,46.867ZM41,30.649C41,29.939 41.263,29.3 41.667,28.864L37.262,24.79C35.79,26.381 35,28.492 35,30.649L41,30.649ZM41.667,28.864C42.063,28.435 42.549,28.243 43,28.243L43,22.243C40.799,22.243 38.741,23.191 37.262,24.79L41.667,28.864ZM43,28.243L58,28.243L58,22.243L43,22.243L43,28.243ZM61,25.243L61,3.619L55,3.619L55,25.243L61,25.243Z" fill="#393939"/>
</svg>
